<mxfile host="65bd71144e">
    <diagram id="C3FXr4_ow-EDEeeZKgP1" name="Page-1">
        <mxGraphModel dx="560" dy="226" grid="1" gridSize="10" guides="1" tooltips="1" connect="1" arrows="1" fold="1" page="1" pageScale="1" pageWidth="850" pageHeight="1100" math="0" shadow="0">
            <root>
                <mxCell id="0"/>
                <mxCell id="1" parent="0"/>
                <mxCell id="2" value="" style="shape=image;verticalLabelPosition=bottom;labelBackgroundColor=#ffffff;verticalAlign=top;aspect=fixed;imageAspect=0;image=data:image/jpeg,/9j/4AAQSkZJRgABAQAAAQABAAD/2wBDAAMCAgICAgMCAgIDAwMDBAYEBAQEBAgGBgUGCQgKCgkICQkKDA8MCgsOCwkJDRENDg8QEBEQCgwSExIQEw8QEBD/2wBDAQMDAwQDBAgEBAgQCwkLEBAQEBAQEBAQEBAQEBAQEBAQEBAQEBAQEBAQEBAQEBAQEBAQEBAQEBAQEBAQEBAQEBD/wAARCAE/ArsDASIAAhEBAxEB/8QAHQABAQADAAMBAQAAAAAAAAAAAAcFBggDBAkBAv/EAFAQAAAGAgECAgUJBgMEBwUJAAABAgMEBQYHEQgSEyEUGDGX1RUWIjdWV1h3thcyQVGW0yNhlSQlcYEJMzhCUmK1NENmcqEmNTZEhJGkpdH/xAAUAQEAAAAAAAAAAAAAAAAAAAAA/8QAFBEBAAAAAAAAAAAAAAAAAAAAAP/aAAwDAQACEQMRAD8A+qYAAAAAAAAAAAAAAAAAAAAAAAAAAAAAAAAAAAAAAAAANE3VurANBYBO2LsW19Er4nDbDDZd8mdJVz4caO37XHVmXBEXs8zMySRmQN1bqwDQWATti7FtfRK+Jw2ww2XfJnSVc+HGjt+1x1ZlwRF7PMzMkkZlyh+y/rX2Yk+rhnKTxLP4Jk5iGtZC/wDdyKJX0nq+eZ8cypPays1nx2KabIzQfHg71pXSuf7sz+D1TdU1V6JYxOXMDwNw++Ni8ZXBpkyEn5OTlkSTMzL6Hl5Eokpa6wASbp16isT6h8TkWdZDk0eS0b/yfk2M2Bdk6lnJ5JbTqDIjNJmlXYvgiURH7FEpKayObOorp1yyTlkfqS6bZkaj23RseHJjOH2Qcsgp47oE1PJEajJJE26fBpMkkZlwlTe9dOvUVifUPicizrIcmjyWjf8Ak/JsZsC7J1LOTyS2nUGRGaTNKuxfBEoiP2KJSUhWQAAAAAAAAAAAAAAAAAAAAAAAAAAAAAAAAAAAAAAAAAAAAAAAAAAAAAAAAAAAAAAAAAAAAAAAAAAAAAAAAAAAAAAAAAAAAAAAAABOs420uryH9nGvaI8pzh1hMhUFLptQqtlX7sixkklRR2z8zSgkrec4PsbURKUkN9sLCBUwn7O1nR4cOMg3X5Eh1LbbSC9qlKUZEki/mYlxdQUHKf8AC0vg99sMleSbSClEOkL/AM3yhJNDb6P84pPn5l5e3j+6zRTGQT2cm3jd/P64bcJ+PAkMeFRViy4Mii15mpCjSZEaXpBvPEfmlaC+iVVJJJIkpIiIi4Ii/gAlJUfUnlP07nOcQwSMv2xKCtcuJiP+E2Z4bR8f5w//APB+l0919l9LM9sbRyVZ/vm7lT9UhZ/5t1RRGzL/AC7eP8hVgASr1WOn13/7z1fVW5/xVcKdslH/AMTkrWZ/8w9U/pb/AI9NurjP/wAR4hXmr/8Ac2uRVQASr1VunZrzrtQ47VH/AAVVRvk9Rf8AA45oMv8AkPz1dMar/pYjn+y8bWX7vomZT5jSP/lYnuSGC/4E3x/kKsACUfNHqHxj6eObdpMvYR/+Vy2hRHku/wD6yuNptB/zP0Rf/Ah/J7wvMS+huTVF9izKf37mqV8u05f5m9HQUlpJfxW/GaQRGR93t4rIAMZjeT43mVNGyPEcgrruqmJ7486vlIkMPJ/mlxBmlX/IxkxNMn0Xj8y4kZlr60l4DlshZOv21IhCWp6+fZOiKLwJhHwRGpxPiknyQ42fmPDje2LqkyODrrdNTEo8hslm1U20DvVS3iiLnsYcX9JiTxyZxXT7j4M21vElSiCogAAAAAAAAAAAAAANE3VurANBYBO2LsW19Er4nDbDDZd8mdJVz4caO37XHVmXBEXs8zMySRmQN1bqwDQWATti7FtfRK+Jw2ww2XfJnSVc+HGjt+1x1ZlwRF7PMzMkkZlCtK6Vz/dmfweqbqmqvRLGJy5geBuH3xsXjK4NMmQk/JycsiSZmZfQ8vIlElLTSulc/wB2Z/B6puqaq9EsYnLmB4G4ffGxeMrg0yZCT8nJyyJJmZl9Dy8iUSUtdYAAAAAObOorp1yyTlkfqS6bZkaj23RseHJjOH2Qcsgp47oE1PJEajJJE26fBpMkkZlwlTfSYAJN069RWJ9Q+JyLOshyaPJaN/5PybGbAuydSzk8ktp1BkRmkzSrsXwRKIj9iiUlNZHNnUV065ZJyyP1JdNsyNR7bo2PDkxnD7IOWQU8d0CankiNRkkibdPg0mSSMy4SpveunXqKxPqHxORZ1kOTR5LRv/J+TYzYF2TqWcnkltOoMiM0maVdi+CJREfsUSkpCsgAAAAAAAAAAAAAAAAAAAAAAAAAAAAAAAAAAAAAAAAAAAAAAAAACRdU9dX3Gp4tLbwY86vss2wqDNiSWkusyYz2TVjbrLiFEaVtrQpSVJURkpKjIyMjMV0SrqW+rqo/MDBP1VVgHqndLH4adVf0bXf2Q9U7pY/DTqr+ja7+yKqACVeqd0sfhp1V/Rtd/ZD1Tulj8NOqv6Nrv7IqoAJV6p3Sx+GnVX9G139kPVO6WPw06q/o2u/siaRsPY6iuoDbVFs3IMk+b2upNTS0dDU382pZSqRXtTHpz5w3W1vOKU8SGzWo0oS15ESjMx6T+ebW1hf4BoDS+bY7s6VeWOSxZN3lVg4+7Qs15xnCiynI6lOSHmUSDaMl9rijNo1mjhSjCseqd0sfhp1V/Rtd/ZD1Tulj8NOqv6Nrv7IgdF135Jf57DerqjGJOIT81PEWqhhqeu+RH9LVD+VFukj0XwydT4hskXJNcn4ncXaMrD6xczc3NVYG67gEyBfZbOxFmvqVTJs2qcbbknHkS5qP9jUpSo6O+Kk0uNk4ZcqUhZJCz+qd0sfhp1V/Rtd/ZD1Tulj8NOqv6Nrv7I5gxDq529hOp8CqcyyLEpuX59lGXMRL22izVwa6tqrB5p032mDN15fiGhplCDQXhmjvVyhSldP9Nm4rPduuXMovKaPXWdfbTqaX6IT3okpUdztTKjeMlLnguoNDiSWnuT3Gk+TTyYPVO6WPw06q/o2u/sh6p3Sx+GnVX9G139kcALzuTUdMV1stWOdQ55uzPukR87i5RZ/IEJ1NrJZjyHWinKQcZlKW0OJKIojJtRdpkZqHQGzOt/NcLy7LccxljD7NrWsSCizjzm5yp+UTFxG5L6K9UdCmo5EhwkoN0l9zh8dqU/SAX/1Tulj8NOqv6Nrv7Ieqd0sfhp1V/Rtd/ZGgVW+N9bKyTJrvTGBYvZ4Xh1/Fx6XAs5Dse6tHTajPTHWHDWmPHJlEoiShwlG4ba/pIPhJ6dim+NxTbnFdb6qoMaKdl+R7ETJn5HNnzGq9uotktIdIvFNxZL8Y0+CS0JT3IJBoQjtAXD1Tulj8NOqv6Nrv7Ieqd0sfhp1V/Rtd/ZHP9l11ZifzewMq7DMazg5uQQsln2xTplPDVUzShrOM3GIn3fHcUlSO5SSbSSu41mRc9G9PG1526tSU2wbWg+RrCWuVFmQ0mtTSX48hxhbjSnEpWppw2/EQakkfYtPJc8gPS9U7pY/DTqr+ja7+yHqndLH4adVf0bXf2RVQASr1Tulj8NOqv6Nrv7I0LdGgND4BjWP5Zgmk8Cxu8h59hKI1nUY3Dhy2Uu5LWtOEh5ptK0ktta0K4PzStST5IzIdJCVdS31dVH5gYJ+qqsBVQAAAAABONq5xkUKxqNZa4JpWY5QTi0SnWydZpK9vgn7J9BmXcSTUlDTZ/wDWPLQR/QJxSdkwLAcd1zQlRY+08s3XVSp06U54syxlr/6yTJdPzddWZeaj8iIiSkkpSlJaNoRhOUvZZu2b/iS8ztnotctRFyxSQHXI0JpB/wDgcNL8vjz+lMV/kRb7muf4LralVkmwsypMZqkuE16bbz2ojBuHz2oJbiiI1HwfCS8z48gGfAYjFMwxPO6NjJsIyepyColdxMT6uY3KjuGk+FElxszSfBkZHwfkZDLgAANczbZGvNaV7FtsfPcdxSDKe9HYk3doxBadd7TV4aVvKSSldqVHwR88EZ/wAbGAwmI5xhWwKgr/AALL6TJKs1m0U2osGpkc1lwZp8RpSk8lyXlz/EhmwAB6VfdU1u9Oj1NtCmu1ck4U5Ed9DiosgkIcNl0kmZoX2ONq7VcH2rSfHBkPdAAHhmTIldEfsLCUzFixW1PPvvLJDbTaS5UtSj8kpIiMzM/IiIeClu6bJKiHf47bwrSrsWUSYc2FIQ/HkMqLlLjbiDNK0mRkZKIzIyAe6MTlWKY7m+PzMWyuoYsquwb8N+O8R8K8+SURlwaFpURKStJkpKiJSTIyIxlgASrXmS5HiGYu6T2BYSLJ9EVU/FcglGXiXVegyS4w+ZcEcyN3IJwyIvFbW26Rc+KSKqJf1FUM2ZriRmePsGvJMBeLLKQ08d634iVKdjEf8CkRzfjK/wDLIV7D4MqHS28DIKeDfVT5PQrKM1LjOF/32nEEpCv+ZGRgPdAAAAAAAB4WZcWQ6+xHktOuRVk2+hCyUppZpJRJURfun2qSrg/4KI/YY0rdW6sA0FgE7YuxbX0SvicNsMNl3yZ0lXPhxo7ftcdWZcERezzMzJJGZA3VurANBYBO2LsW19Er4nDbDDZd8mdJVz4caO37XHVmXBEXs8zMySRmXD+W6x2xufY2pNz9TE+wxNGaZmilxzF4UpbKsVrTgS5aDN1PCkWUlyKyg3k8LaJSu00L7PBquvsBtczyFrrP627GqxSNT9rmG4rczm49biMZ1aUtSJa3TShU5xSmy5Vx2qNJERK7Et3qTP6f+p/FbDFYOXYrntQy8w9IKivm5C4b6F97LqXojviR3UqT3IWlSVEZckYCW5rZ2HTWi2qNQZtLym2trLF4UTEsvvJlk3UqsrI4JSfTHluSUNOmavoKUsiVHUpKfNRHhonVntf9p72JKwhm1rqDKK3DLlNVid46qTJdRGTMsWZ6W1wYrDLsg1FHecU4ppo1GtJqQR2uh6ctR49Wu10ehnzlybmuv5U60up06fKnwHUOw3XpT7ynnCaW2g0tqWaCIjLt4MyP1JejtF3O2pGVvREu5bHehZHNq2r2SmOqSnuaiWUisS8TCnS9GUluQto1csHwo1N8pDn7OOrjaU5nN6LF5NChmRjOXTaC3g0VoTVe9VoNSDKe/wBsWwcU2SzP0b6LLpJJRuER8+5e9X228Vt3cahYgnJpGGU1FIv0V2I3k127lTGEPuoivxG3Y8HsZWlSTkqV3rM08ISXeLTG6RdCxZyJyMWtF+C3Pjx4z2R2TsWLGmtuNy4rMdUg2mo7pOqNTKEkjuJCuOUINPmm9KWkbGbWTZ2P2z6q2HDgLacyKxUzZMRD7oqJ7Zv9s/wjP6JyCcP+HJl5ANO6tpO2PnRqSt07lMuqvXr2ymtw0ylNRLg4lXIkpgSyI+FMvG14ZmZH2Gsll5pISgus21Xk9/bYEqwnKzS8oqiqh2NZY2yMdcTTvyZ6F10ElSFvNuRnG1stEn/E7lKUSUKUOy7jDscv76gya2rvHssYfflVT/jOJ9HdeYWw4rtSokr5acWnhZGRc8lwZEYkGz9R9JWGxrjI9lTKHBTy/IWb1+4kZS7RurummVIRIiyCfbNh/wAI3e7wVJNZKcNZK7lchK73rR2/S4kzId1ZFayW6rZ0XHIEyunwflS5i3UeAZkzKJp9uO7HmxpSW1pS4hKXyNSuzkYedjGZb6t7brF6XPkvH80oZUeDUESjKLnFWUCK9Ii2H0uw1E+66y04XBp8Au4y+ipu767xTpNyqNhkDWdziGTfMidPu8eXWZIVk81LV9CZKW4l5a5CzVNSbq3TX9N9tSvpmgxSdda4wnUuIQsC13QM0tBXLfcjQmlrWltTzy3nDJS1KUfLji1eZ+XPBcEREA0vp16isT6h8TkWdZDk0eS0b/yfk2M2Bdk6lnJ5JbTqDIjNJmlXYvgiURH7FEpKayOYN7aOtMlyVPU30pZDVQ9rY4t6unNMyEKr8oZjuG2/Vz+0+3xULbU2SzMlIWgkqNPalTdG6deorE+ofE5FnWQ5NHktG/8AJ+TYzYF2TqWcnkltOoMiM0maVdi+CJREfsUSkpCsgAAAAAAAAAAAAAAAAAAAAAAAAAAAAAAAAAAAAAAAAAAAAJ5ve62Viut7rMdaXWMwZmO18y1kt3tNIsGpTTDC3PCQTMqObSjNJF3mayIv+6AoYlXUt9XVR+YGCfqqrGg0nVYjBk1tJuu1g29tYRKu0mT8YozgV9JFsOERkSUSZ7zzqzcS4alskrtQaFLQgjJStM6nupShzDU2R45g9Ll7eS4pkmMu2yW4cVp+ils5PBQw24qQpTHpDqmjdYLtdaUgkOLLw1F3B2MAk7Ontjustur6q9sMqWklG2uuxTuQZl+6fFOZcl7PIzL/ADH9/sb2L+LHav8ApuK/BgFVASr9jexfxY7V/wBNxX4MH7G9i/ix2r/puK/BgHp5/wBN1blmfv7Rw/ZeZ68yaxgM1dvMxqRGJFrGaNRslIZksPNqcbJayQ6SSWklGXJlwRefBumPW+u5+FWWNvXSZGEtXJMOSZhSHLKRaKaXMlTXFpNx59a2SV3EpJEalFxx2kny/sb2L+LHav8ApuK/Bg/Y3sX8WO1f9NxX4MAwNN0m43QZe3b1Oys6jYszkLuVs4W1PZRUIs3HTeUvlLRSDZ8ZSnfAN42u8/3e36IxNb0V4pUSqBNdtbYDFRiGSrynGqVMiB6FVSnHnXXkpI4ve8lfpEhH+MtxSEOqJCkn9Ibp+xvYv4sdq/6bivwYP2N7F/FjtX/TcV+DANUPo5xWFWVrGNbKzejtMdyG3yHG7aI9DVJpflNanJsJolxjbdiuOLUs0PpcVyZfT+iniqax11X6uxNrFoN7d3bnpD8yXaXUv0mbNkvOG4466siSnk1K8koSlKSIiSkiLgat+xvYv4sdq/6bivwYP2N7F/FjtX/TcV+DAP6renTB6vQdx06MWN0vGruFcQZElx9o5qEWTz7z6kLJsmyUlUlfZy2ZERJ5JXB86nd9HmOWVlPlVG2Nh49CyKFAhZTAqbCMw3flEYQwh15ZMeIw6tptDbi4yme5JccJ9o2r9jexfxY7V/03Ffgwfsb2L+LHav8ApuK/BgGBvOkXBbnMLe/ZzHMauiySyhXN9icCcy3UWk+L4RNvupNo309xMMk4lt1CXPDT3EfnzpGWdI9unamuZWvM0y7HaehVnFxNyCBNg+mRLG5mRJCWfCeZUh1lR+lJJJtL7UoQZqJZJWdV/Y3sX8WO1f8ATcV+DB+xvYv4sdq/6bivwYBqp9G2F1NVjKcBz/NcRyPFyskt5PAmR3rKwTYvE/OKZ6Qy40/4rxJd58MuxaSNHaXkdb11glXrTDK3CaewtLCPXIXzMtZapUyU6tanHHnnVfvLWtalHwREXPCSIiIi079jexfxY7V/03Ffgwfsb2L+LHav+m4r8GAVUBKv2N7F/FjtX/TcV+DB+xvYv4sdq/6bivwYBVRKupb6uqj8wME/VVWH7G9i/ix2r/puK/BhoG69a5njuMY9cW/UFn2URGM/wgnKq2hUDcWR3ZNWpI1qiVrD5dpqJZdjqfpIT3dye5Jh0oAAAAAAJT0o8F0y6saV/wBexiNUxK/n6SiMhD/P+fipXz/nyNF3RkWMa86otc7D21Kh12EtYxc1dddWayRX1N65IiLSp11f+Gwt2M26hDizT+4tJH9Lgbnpp75kZdmGkJ5eEVdPfybHTPniRT2D63lpSfs5jzFyWTSRn2tnGM+PESQ2XOtN4fsaxTZ5JZZmy4mMUTwafNrqojKbJSlfSYhSmmlK5WfK1JNRkSSMzJKSIOKsoznHXNtWOf4/sqbgum862XVVcnI6eyOsh3DkfHLFU6S3ILtSTDj6YbKpKTIjXGUtK+UEssTke6NjKr8VrrDaMqt14TWXLx/KL3OpONOX5RbQmq91dgzDkrlrRFPuaYNKfSU/4ivEMu0+zfVn1kZwzdnZzK9AkuS46p+dXU9xlxcGXCUbLsmU45HPwJz5dzCm1d3hq55bQZfw50xazeSlDt7tJaUqJSSVtbKTIjL2GX+8PaQDmO0vNw2OJZhsjJdu5XFyLBcXwm1jxKqY/BrXbB9hK5jj0NbbaloeMuFMvNpJPJ/QSr2W/qkg5VZbF0LCwm3qKu6czOy9Fl21auwiN8Y9ZmvxI7bzKl8oJRFw4nhRkfmRdp7j6tOuvtHtX3sZV8RD1addfaPavvYyr4iA40zTIdoavzTP6LIMtoIU+72NSfPHIq22exGsKpdoFqgpVJbblPViVyI/hLf5cUtZJR4iCXynNVW0LebQ4sjePURbYzhz1Jk0zG8gx+/lIXbzWLIkRGTmuR4zlk4zFNJMp8Ltmebna75GOrnemTWrzamXr/abiFlwpKtr5SZGX8jI7Efp9MutjJKTv9pmSDI0l+1fKfomXs4/3j5AOXLvZq2tisU21t5ZFhmJy8/uINnOK1VSGptvGal9lh15Ki9EL0h1auErSZLWaCV9Pg57km9N2SayC3d7RdxhuNhapuD2Nzlsulk3b/ylPZjzvRY9fJO7kKjs1q1QlEXJPkZIUb3ejvJrp8160mEhUvL5XoCbFLD0/L7WdKbKdHRHf7JciQuQ19BtPZ4biPDVytHaozUfoudMetHVIW7fbSWptXcg1bXykzSfs5L/AHh5GA1Xqrt8rtdRUmpaStjT8t2pLj46uCUpcVpyJ4SpFry6aFKabOIxJb7zQZpU6jlJn5Hzizm9nrGJj2gdm5e9qSsx3arzc46XIzaYj4vaVVnPgx/Tuxo0sJkIcjd/ajwyjEZKSaCWXXfq066+0e1fexlXxEFdNGtFqhrfn51LODKclsLsM7u57jLjkGXCUpl2TKccjn4E6QXcwptXd4aueW0GQchwNt1k+5x2p2p1IZli2AHSZm5j9384nIEnIGoly01WSFSSNKpDno6nPD/jIJCFK7+5SVdr6Iu8wyTSeBZDsGI5Gyeyxqtl3DTrfhrTMXGQp3uQZF2K7zMzTx9EzMv4DCM9NGs2XnZBTs5cddguV5yX86unpjbK5EZ80tTVyjlMl4kNk+1t1KePELjhxfdn8K1DimA2rtzRW2aypD0dUZSLvOLq5YJBqSozSxOlvNJXyguFkklkRqIjIlKIw2q5fgxaidKtDSUJmM65I7vZ4RJM18/5ccjnfp8xnqgb0JrVEXa+t4bKcQpibjTdez5MhlPoTXCHXU3TaXFkXkpZNoJRkZklPPaW+9RVlKssSjahonlpvdmPqx5k2zMlxq9aebGZyX7pMxPFNKj4I3lsI5I1kKjDhxa+IxAhMIZjxm0sstoLhKEJLhKSL+REREAmHzc6p/vk1V7tLH46Hzc6p/vk1V7tLH46KqACVfNzqn++TVXu0sfjofNzqn++TVXu0sfjoqoAPlnuzT3XDk/W5Mvun28Yr72FV10bJ8uqqKTjtC8+SDW0iQiTKmJsFIYXGJRI7+CJKTaI0Go6VfxMo1d1W4ZnnXbYxcqoHIUevwjJoDJxscoLs0J8b0qGru8KQ4tJmiStfb5EZJQSf8D6BDAZ3gmI7NxG0wTO6KLc0VywceZDkJ5Q4g/YZH7UqIyI0qIyNJkRkZGRGAk/WwidK6epjdNKjMzHsoxBMV+Qyb7KHTyKu7FrbSpJrQR8GaSUkzLku4ueRz3uiVvPVWytgZPY5Hjlrm0jU3OPWWN07lQiHBauGE2K3GHFy1uONNvtvId7lk2SF/4R8n3bfgudZh0PZhWaR3deS7rT11IKHgudTFdy6dZ/uVVmv2JSReTTx8FwX8EkZNdlpUlaSUlRKSouSMj5IyAfO/HtoZM6qPXZPvhqHpqVl0CDbZLR7Bm3Cq41VU5046sheixVNsuymoHd4a1G0tw2zW2ThJL2s62pa1SjVF3pl0XFFV+vkqyaU4cSZ8mSsmuGH5KlH7O+I00RvmX00IQ4ZefA+gSI0Ztn0ZuO2lrz/wAMkESfM+T8vYIHtjbeP3WT3OCO6S2RlzetbOpvrGfQHVpjx5LaUTY/CX5rT7vBERqSho+eDIufLkObsq2/mEWPDpcX2pJmaf8An7aQIWZXefSadufFaqYbzUZV+2xIdNkprtglDpebvoyW/E8jJVuPOdrx+hEs2kZep/JSryU9kMFLrjrdUdh4a5zZvR2VuOorjN0nDYQS1o7yTwZGdqqNwaiv8cxC0TmdDFhZ5BjTcdiWMpqK9YsvNpW2TTDpktSuFp+gSTMj8jLkZK12ZgVTbz8Ydy6ldyKvgOWLtEizjFYGwhBr7/AW4lRJMi8lK4T/ABMyLzAcZoubXLc3ptdao6iMxttZ2ufU9ZHySBk658x1aseuZVlBbsVGtTjXMeAv95RtOOL7Ow0JJNp6oKXI7fYugabEMiiU1q5l1omNYT635Saa7cesjV3sG434hqQSk/vlwaiV58cHWKXbGr5r9RRM5njkC4tmm1xaNy2iFN71sof8ImW3FdyybdQoyQai4USiM0mRnl4Oc4TZ5NNwutzGjl5DWtk9NqWLBlybGQfHCnGCUa0EfJeaiIvMgHJnUFbbb1/IcoF7QX8slra6mnaUlcVWhMn5cp22nkR/EdJK0NPLRyaj55VyXB8DEZ3e3GtNk2Gqsm3hmlRrL510rl3ktjkaymVjMqonupjnYL+nGjvTYsYjUSkkg19iTQlzy7mH8OtNPNqaebS4hXkaVFyR/wDEgHP/AEMSYkzRcmXX38u9iP5pljke0mHy/PaVdzDRIcPguVLSZLPyLzUfkQiu1CVs7rTpnekEyrthYkRR9kZikvEoW4HsTXz2E9vp0n6PCUocbWjtIjWRo5Z33dW6s+3Zn07pZ6WbX0SxicN53nbZd8bF4yuSVGjqLycnLIlEREf0PPzJRKU1ddK6VwDQWAQdda6qvRK+Jy4++4ffJnSVceJJkOe1x1ZlyZn7PIiIkkREGF+bnVP98mqvdpY/HQ+bnVP98mqvdpY/HRVQASr5udU/3yaq92lj8dD5udU/3yaq92lj8dFVABKvm51T/fJqr3aWPx0Pm51T/fJqr3aWPx0VUAEq+bnVP98mqvdpY/HQ+bnVP98mqvdpY/HRVQASr5udU/3yaq92lj8dD5udU/3yaq92lj8dFVABKvm51T/fJqr3aWPx0Pm51T/fJqr3aWPx0VUAEq+bnVP98mqvdpY/HQ+bnVP98mqvdpY/HRVQASSVU9WNc2U6Hn+pchcZcbUdW7iFlTFKb7y70emlZTPRz7O7hfozxckXKTI+S83zj6p/ub1V7y7H4EKqACVfOPqn+5vVXvLsfgQfOPqn+5zVXvKsfgQqoAJV84+qf7nNVe8qx+BB84+qf7nNVe8qx+BCqgAlXzj6p/uc1V7yrH4EHzj6p/uc1V7yrH4EKqACVfOPqn+5zVXvKsfgQfOPqn+5zVXvKsfgQqoAJV84+qf7nNVe8qx+BB84+qf7nNVe8qx+BCqgAlXzi6p/ud1V7ybH4EMpEq9i7DxPKMO3BieOY5Cuq5ysacxrJn7R1xp9pxt41HIr4xMqSSk9hkTpKMz5JPaRKoIAOUa7F+nHaW4peK4NsHLXL7EEwKDKI9VRLXCfXWGfhMSrJcFSGHi5NCyjyWVLSRoPnt4L1N89L2JYzgVlZ0eZ5cxa5tleJV2Q2C5Ud12yfkZbXKbnOpWwbfpEcnVtsmlCW0tGltTa0oQSetI8WLEQpuJGaZStxbqktoJJGtajUpRkX8TUZmZ/xMzMS/qW+rqo/MDBP1VVgMF1Obqz3RtbgMrCcXYypy5yFUG3iPNqOW9Wx66XNlLik2pCfSvDhqNCTSaVK+j2l3EZftd1KRJuQ5jIra13J8arKvF7DHvm5EVJnWh23j9vHcsmzT/htKJR+GlCe9S1cFyW+53rn565Xr7J/ln0P5i3z934Ho/iemeJWzIXhd3cXh8emeJ3cK58Pt4+l3FCJvQrFhpz2LiefsM0+XXtTcw8ftqdU2riMRFyHXa19pMhs5MJ16W6smiU2TZdifppTwYbdP6zdexIVU5EwfPLOzs03viU8CrZemQV07rLc9Ejh7w0mjx0KJSVqQsv3VGpSEq/abrS1Rb0lhkDlJmFdFZrK24qSm1HY7kESwkHGhOQG0rUpw3X+1tKHCbVytCjIkq7hhtV9HsvXNqc53O6Z2K1EyiLGg1WLprY8crpVc4sm20SFIQ2y5AWSEJLzQ6lJq7kGtzwZp0S1uaYdT4rY5rGdVRYXQYvFVKokSYzsmqloktyX463TS6y6pvscjGfmhSi8Tk+SCya425j+x6+7fbq7fHrDGJnoN5U3rCI8uueNht9Pidi1tqQpl1txK0LUgyV7eSURSDKOtzGo+tcmzTFsAyz0qPh9nl+JncV7caJkkKIhBrkx1eN3kyjxmHVk4Tbpsr70IV5De9F6DgamxPIKCyj4gtzKJi5M6Li+LMUFY00bKWSYajtKWtRdqVGa3XXFmpauDSntSU8a6PsttcHf1/m23YNpXVGvrjXeJPR8dUw9Aiz2GmDlzDOUpMt9DMdlsuwmEmXimZcufRDbtlbT2lh+k8HyOtZpI2ZZTd4zQylW1S6cSK9ZTGIzrhxGZfcXZ4xqJspKvZx3n7Rrttvvauscska522vEn7GQVJPp7yiqpSY0uJLu4tY+w7Cdkmtl5KpbXa4UhxBE6SzSrwzbXSd06ltto4LUYvQZbGx+zor2mv4VhJqzns+PXS2pLaXGEvNGpKlNERkTiT4M/MaRZdMGTZjJn5NsrbDV1lUyXjpsS4dD6FAgwKq3ZsvRWIhyHFEp9xnhbq3lmXKDIuEEgw9DPesOsh672HlOAYndurxGpuplbdWVcS6Wwk1rxsSGiWy94iTS6Rl2OkypaUqUjuIjMU7V26aTaVnf0MfFsmxu3xwojsuuyCCiNIONKStUaQhKFrLw3PCdIiMyWk21EpKTLgRS66I7bJbXN7C12LQQ3MrqLinOdUYkUKdOROWlTblstuSTU9cdKe1CiaZUfJqNXJmQvFFrj5E23l+0/lnxvnXT0tT6B6P2+jfJ7k5fieJ3H3+J6dx29qe3wvaru+iGrYbvmNe5SqrtIptw77M7fEMZ9HZ7jWuqjvKmOyVmrgiU9EmJQSEn5Ib581H24yw6utfRm4HyTiuY3z8xuzlPRKmtbkSYcOBPcgyJS2fFJbjZPNL4SyTrppLnsGs1GgNgMK+TscySPjVngmx7rLMZs7GrOzgz4Fw3KceZWyh9lfKFWMlv/rEqJTCFeaVjA33Q7kVzr2h17J2nQWSK1m2Q/bWuHJesIkqbPfl/KNY81JbXBlp8c0d3c42o221eGXaaTCsr6msCRni8LKnyRcNq9bxZzJE15HTouVoJSIJvd/ieIZqS33E2bZOKJs1kv6I9/VfUFhe2NWv7mr6u/ocUajLnJm38EonjREMk65IQklKM2kl3p7vIjNtRp7k9qlS6s6JaSp3I7saNMwyRXP5P871uzsIiysiKdySzZTbOLPsYN8vFLtZJ1JmaUuJLgyquGaTqsd6eKvp5vbRVxWxMSRiUyYlj0c5bHovo7iyb7l9nckzPt7lcc+0wGmO9ZOBwsfK/ude7Gq/SXatFZCk0STlWqLFa24bkZtt1XeS1t9poUaXUGtHehPcQzEDqkwablkfGHMYy2JHdt2MbfupFcgq2LdutpWmtddS4avGJS0tKUlCmidPw/E7vIYmn6e9lyouPR9i7uZvk4tZ0cutZh496DH8GtW4ozcQchw1SXyWglukokJJpPY0XKu7XG+ialjbmm7HizMMTXz8nXl63XsIiSMiZnKMlmy1auqV4bHjl4qeGfFQf0UuEXmQZHM+syjo8IzO9ptb5em4x/EZ+YVEG4hNwk3MCMpDa5KCN03G2kLeaUsnUNu9iu5LavIj2Kf1WYRT2qaq2xPLmEwUVacjnIr23ImNyLBLao8ec4h0zJwyeaNXhE6lCXEqWpKT7hIsa/6P2bSQrOvkbFxhJXGCXuBWE2twz0WfYs2CGf8AeM2SqYtcqcTkdClrX9BRKUlKGzM1DOX/AEQJyXY7uwbq419PlXzlPLyOTO17HmzylQWGWXPkyRJec9CZfRHQRtrQ+aDNSkq7lckFt1JsKdnDeWU96zGau8LyWXj1h6MlSWnSShuRGeSlRmae+LJjKUXJkSzWRGZERjEdS31dVH5gYJ+qqsezpLErmlez3MMhr1wZ2c5dKuUxnTI3WYjTEeDFJfHkRrYhNu9v/d8XtPzIx63Ut9XVR+YGCfqqrAVUAAAAAAaJtTXU3M2KrIcWtG6jMcVkLm0Ng4SjZ71J7XYslKfNcZ9BEhxJeZcIcT9NtBl7GutnVueNy6uXBdo8qpTS1eY9LcI5MBw+e1RGXk8wvgzbfR9BxP8AJRKSncxpWwdU0GeyIV8mVLosqp0LTUZHWGlE6D3GRqQRqI0PMqNJd7DqVtL4IzTySTIN1ASFvaOeayM4O8MYXKq2j7WsyxqG7IhLQRfvzYae+RBUZ+00+MwREalOtl9EqVjWUYzmdNHyLEMhrbuqlp7486ulIksOl/NLiDNJ/wDIwGUAAAAAAAAAAAB61jZV1PBftLafGhQ4yDcfkSXUttNIL2qUpRkSS/zMwHsjWc+2HjOt6ZFtkMh1bsp0otdXxG/Gm2UpRH2RozJebrquPYXkREalGlKVKLSHN32eff7B0+YwWVpcMknk89S4uOxy581okcd88+D5SmKlbajLtU817RnMH1DDx+8PPMyu3svzh1lcZV7MYS0mIwoyNUaFHSZoiMGaS5JJmtfBG644ZEZB6+s8EyBF/Y7Z2QloswvoyIbUBl7xY9DWpV3ogMq9i1mrhb7xEXiOERF9BtoipIAAAAAAAAAAAAwGd4JiOzcRtMEzuii3NFcsHHmQ5CeUOIP2GR+1KiMiNKiMjSZEZGRkRjlLBc6zDoezCs0ju68l3WnrqQUPBc6mK7l06z/cqrNfsSki8mnj4Lgv4JIya7MGAzvBMR2biNpgmd0UW5orlg48yHITyhxB+wyP2pURkRpURkaTIjIyMiMBnkqStJLQolJUXJGR8kZDmPKOlRGzdk7nvcxey2rhZUxXRqN+my6ZXtSUorEsuKcjRpCW3DS6Rl/tDZ8kXsNJjUMFzrMOh7MKzSO7ryXdaeupBQ8FzqYruXTrP9yqs1+xKSLyaePguC/gkjJrstKkrSS0KJSVFyRkfJGQD54ZB0zb9vK6LEyPCMnckZXrXGMUkxqCXjMeJUzITTiJTEl6Uw+7FYS4vx23K4lHyZ8JJSW+KqrTuwYlnmeGuaPYvZFnk99k0LPJtjDQXhTK99thDZJdKT6UnxEQu1baWSZI1Gsy4SfXYAPnvgWtNgWszOta02miXkDGaYN6Vma5UDwaJdXUUL76FGbvpCnG0oc8LwULQtUhXKiSSudv0Z07bUxTcGOLy+ny42cTyfJL968cmY+3UTEz/SybWybEY7WS48mSg3GpLiEIUjnuX2NJHabEOJFcfejRWWnJTnivqQgkm6vtSnuUZfvH2pSnk/PhJF/Ah5gAcn7q3Vn+7M/ndLPSza+iWMThvPM8bLvjYvGVySo0dReTk5ZEoiIj+h5+ZKJSmm6t1Z/uzP53Sz0s2voljE4bzzPGy742LxlckqNHUXk5OWRKIiI/oefmSiUpq66V0rgGgsAg6611VeiV8Tlx99w++TOkq48STIc9rjqzLkzP2eRERJIiIGldK4BoLAIOutdVXolfE5cffcPvkzpKuPEkyHPa46sy5Mz9nkRESSIi3sAAAAAAAAAAAAAAAAAAAAAAAAAAAAAAAAAAAAAAAAAAAAAAAAAEq6lvq6qPzAwT9VVYqolXUt9XVR+YGCfqqrAen1C313RXWnkU1xNgostjRYU5EaQtpMqMdZYrNl0kmXe2a20KNKuS5Qk+OSIRag6wtzVOCY5sDZOK4U5FzrXEzMsfiVK5TS2JrDle03HlOuqWRtPHZsK70pI2uFpPxOO8+m9lwNaFV12XbSm1tfWYdYovYtjY2Jwo8GUlpxhLy3DWhHHZIcTwszSZr9nJEZTaBrTp+29qWHWaZscRva3HsXn4Tj0xucu5r4MV9uOTkZ9CX/8AHL/ZIhq71+KRI+itBqMzDRr7qH6j8UyXINbWWN67ssogWmIV1bKiqmMQX03Ts1tbryFLU434JxC+iRqNREo/++lKfUh9Yex07GlVErCDscepMrLDrUqvEb1x03GyS1Ks0WBNKgtsokGr/Z1rNzwk9xuErhB7vpnpPp8Ktr/Kc5RFsLO5sqaxYajWlnLTGcq0u+iuKkzX3H31kqQ6fas+xKCbbJJkjk9vb0bo2btabmTEMnsphS2L2bWN3sk4jM1xCm2bB2tJ70dL6ktLJL6mu4/DUZGak8kHLee793tPp6XZeVrpq6iyPTuUZnT1OOW8+MskqVUuMIlutupNbzTTxdshk0cG88SCSRdyqcz1cZ7Y7km4zS4G/Nxavzf5kPNsYtdOySNKyZdsVWaGTrm2m31ebCld3hJNZrSfCBuuMdKHS/Prp0zHKFdvWWFbY4x/h5TYTIkaA6+SZcCMn0lTcZtLzBpNtokeGpCkl2+ZDbHOnPUbuwVbMXj0v5XXPK2WwVtMKuVYk2TZTTgeL6KckkERE94ff5EfPd5gOYch6oupKw0K7llk3hNDMzfTt3n+OyqdmUt+qegNw1Ooc8Vw0rU4zOJbaiIiacSSVE8RcqqELqB21UbsptZ5vBxutq5MmDWNzH6eyZbvXHoLbrr8KeRuRGnEyDcbKC8fiqSglEv6REe159h/SdrbF8axTaNtieL0kHGLHCaOPkGS+hIXTyG4zcuKhT76Te5RHikazNTieCMlJ7jM2Oaf6bCvcbzehuisXbWRHfpe7M5kyFcToUXsblpYXJUzNltx4/JvmlbnDPepRmjuIPfsb27R1dY/jKLiamof1xcTna8pCyjLkos65CHjb57TcShxxJK45IlqIj4MxONl712Pgub55Bw2hXJZhZLWQJlm/Bs71ipiLpEyTkHWxXPG7De8NtRxySlPiG4slHzzZNiaE1ntO/r8qy6vuyt6uG9XxZtTktnUOpjOrQtxpSoUhrvSa221cK580l/IYqf0v6dntN/7syCLNakxpiLWJlVqxZE6xEKIhXpqJBPnzHSTa+V/T9q+5X0gGk6I2lsvZG67Z+2yfGZeJSNcYxexoNOl15luZLfsEOOsyFmk1JUqK4R9zaT7SYTwlSHDc6NE3wnXOlcQyytmYImFCuYuLM08WLEuXVeNSsvqU0pcfxTS8SHnXOJC0qWSnnC7/pqI6QAAAAAAAAAAACVdS31dVH5gYJ+qqsVUR/qstqqg1LEvb2ziV1bXZxhEuZMlvJZYjMN5RWKcdccUZJQhKSNRqMyIiIzMBYAEq9bHpY/Etqr+sq7+8HrY9LH4ltVf1lXf3gFVAYHDc9wbY1QrINe5pRZPVpeVHVOprFmbHJ1JEamzcaUpPcRKSZlzyXJfzGeAAAAATnI9A63vLh/KKuDOxXIpKu966xic5Vyn1/8Aif8ABMm5X/CQhxPs8vIuKMACUFi/UXi30cd2fjmZxEfux8rp/Q5qv5czYBpaL/P/AGM/5/5D9LZm6qf6OT9OFjONP77mJ5NX2DZf5l6cqC4Zf8Ec/wCQqwAJV6wddG8rrU21a1Re1PzPlTeP+cIniP8A5GYesrr0vJWM7VJX/h/ZTlB//Uq/j/6iqgAlXrD0cjyqNY7VsFH7E/Maxh8/85bbJF/zMh+ftW2xbfRxjpsyZnn91/I7urr2Ff58R35LxF/xaI/8hVgASj5I6mMn+ja5bg+CRl/vtUkF+7mJ/wDklyvAZSf+aoi+f5EPPX9O2AuTmLrPJFzsO1jrJxqVls301ppwvYtqElKITCyPz7mmEK9nn5FxUAAfiUpSRJSRERFwRF/Ah+gAAAAAAAAAAAAAAAAAAMBneCYjs3EbTBM7ootzRXLBx5kOQnlDiD9hkftSojIjSojI0mRGRkZEY5SwXOsw6HswrNI7uvJd1p66kFDwXOpiu5dOs/3KqzX7EpIvJp4+C4L+CSMmuzBgM7wTEdm4jaYJndFFuaK5YOPMhyE8ocQfsMj9qVEZEaVEZGkyIyMjIjAZ5KkrSS0KJSVFyRkfJGQ/RxngudZh0PZhWaR3deS7rT11IKHgudTFdy6dZ/uVVmv2JSReTTx8FwX8EkZNdlpUlaSWhRKSouSMj5IyAfo5P3VurP8AdmfzulnpZtfRLGJw3nmeNl3xsXjK5JUaOovJycsiURER/Q8/MlEpTTdW6s/3Zn87pZ6WbX0SxicN55njZd8bF4yuSVGjqLycnLIlEREf0PPzJRKU1ddK6VwDQWAQdda6qvRK+Jy4++4ffJnSVceJJkOe1x1ZlyZn7PIiIkkREDSulcA0FgEHXWuqr0SvicuPvuH3yZ0lXHiSZDntcdWZcmZ+zyIiJJERb2AAAAAAAAAAAAAAAAAAAAAAAAAAAAAAAAAAAAAAAAAAAAAAAAAAAAAlXUt9XVR+YGCfqqrFVEq6lvq6qPzAwT9VVYDUuqqZW47kmnc8zVtKsCxrMXJORPPp7osFTldKZhTZBeZE01Jcb+mryQpaVmZdvInWz9s62yI7rL9VXnzfxGyyrHabPdm0M8mGJcPw5JqSxMR9EvCcVEZclIMuxMpSSWRtn29jKSlSTSoiMjLgyP2GQ/go8dLHoqWGyZ7ezwySXb2/y49nH+QDgat2PGlZDCpNk9R+Q0WkvT8pPFMuaypcR65XFOvKOy9akolvobU7aGzytXpCWEmo3Ozg8Jjewd0Q82x3LtlWsypxWxxzX7myLmI8qDbMqfKyKEp0kpIo8dchTRSzQpC0E5wnhHiGX0TVGjrbSythtTaDI0oNJGSTL2cF/Dj+A8oDgyik53seNOgzdt5vTR6rFc5uGk0tw5DUubFyeazFcWpHmomm0EkkfuqIiJRKIuBhZu7MiuCrsjyndOUY7n7+W4HBp8Wj2Co8Szo5iag5UgopESXm3XJM01yOPoqSlnuIvor+hond7ovD8kzNGY29nkbyU2UO5XTncPfJbk+J4ZxpBxue0lNqZaWSUmSDW2lakqUXICadQ2dYBrvqK0vkWy8ppcfpSqctYVMt5LbEfxForu1BqcMk8nwfBfx4MRavvZtLkVhlmrnpmP4FmGf5JLx1iMyqGxKYj4U8T0thvguGXLCM86gyIiUpHiFySiM++AAfOTPsv2fgtNrypv8AdtpGrLvXJZT8vZFn8qgXOyJ4m/EQ04xCk+k+AjwlNV5ESVE8ozS6fI37As1uso2Cqn3Tu/KKPZirairq7FaOW/GizqmRUw3JMhuvMm1G2t9yea5a0JcjqaJJdhtkhXbTrLL3b4zSHOxRLT3JI+1Rewy/kf8AmP3sR3k52F3kXb3cefH8uQHzTw3NLzDNP4JT4nsq5rKFnDK5jK7FizXIk0cdWSxo1m6hSzUbDjDK3UGfHLCe9REXYKTQW17m+dUOu8M3jmFnrGfsiZVVd9ByR1+ZYwWsXclyYqLIlKcfZROSpJPd5rSpLiErI20mXcfYjtNHYntVzyXHkfPtH4002y2lpltLaEFwlKS4Ii/kRAPnHmG380pde4zLvd2W/iUMbKozcL51uUt5aLrr+XDjSojqmlx7iWlmM2hUF4vpqcSoyM3B9GozpvxmnzQ4g3EJX2uJ7VJ5Lngy/gf8yH9LZZdUhbjSFqaPuQakkZpPjjkv5eRj+wAAAAAAABKupb6uqj8wME/VVWKqJV1LfV1UfmBgn6qqwFVAAASrTf1i72/MCH+laEVUSrTf1i72/MCH+laEVUAAAAAAAAAAAAAAAAAAAAAAAAAAAAAAAAAAAAAAAAAAAAYDO8ExHZuI2mCZ3RRbmiuWDjzIchPKHEH7DI/alRGRGlRGRpMiMjIyIxxQ/hHWHrS5j9E+vc5YkYnksd+wxzYE54lW2PY3GW03OiGjkjdkNqlw22XC44S95GngvB72EqyP/tT68/L/ADL/ANRxwBmtK6VwDQWAQdda6qvRK+Jy4++4ffJnSVceJJkOe1x1ZlyZn7PIiIkkRFvYAAAAAAAAAAAAAAAAAAAAAAAAAAAAAAAAAAAAAAAAAAAAAAAAAAAAAAAAlXUt9XVR+YGCfqqrFVEq6lvq6qPzAwT9VVYCqgAAAAAAAAAAAAAAAAAAAAAAAAAAAAACVdS31dVH5gYJ+qqsVUSrqW+rqo/MDBP1VVgKqAAAlWm/rF3t+YEP9K0IqolWm/rF3t+YEP8AStCKqAAAAAAAAAAAAAAAAAAAAAAAAAAAAAAAAAAAAAAAAAAAAAlWR/8Aan15+X+Zf+o44KqJVkf/AGp9efl/mX/qOOAKqAAAAAAAAAAAAAAAAAAAAAAAAAAAAAAAAAAAAAAAAAAAAAAAAAAAAAAAAA0Ld+G5LnWAlT4gmsXcQr6gvYrVlKcjRn1VtvEnmyt5tp1TZOJimjvJtfaaiPtPjgb6ACVfOPqn+5vVXvLsfgQfOPqn+5vVXvLsfgQqoAJV84+qf7m9Ve8ux+BB84+qf7m9Ve8ux+BCqgAlXzj6p/ub1V7y7H4EHzj6p/ub1V7y7H4EKqACVfOPqn+5vVXvLsfgQfOPqn+5vVXvLsfgQqoAJV84+qf7m9Ve8ux+BB84+qf7m9Ve8ux+BCqgAlXzj6p/ub1V7y7H4EHzj6p/ub1V7y7H4EKqACVfOPqn+5vVXvLsfgQfOPqn+5vVXvLsfgQqoAJV84+qf7m9Ve8ux+BB84+qf7m9Ve8ux+BCqgAlXzj6p/ub1V7y7H4EHzj6p/ub1V7y7H4EKqACVfOPqn+5vVXvLsfgQwOYUfUbsuHUYzkev9b0NWxk2P3cyfCzmfYSENV1tFnqQ3HXUMJWpZRfDLl1BF393J8cHcwAAAAEq039Yu9vzAh/pWhFVEq039Yu9vzAh/pWhFVAAAAAAAAAAAAAAAAAAAAAAAAAAAAAAAAAAAAAAAAAAAAASrI/+1Prz8v8y/8AUccFVEpyT/tTa7P/AOAcyL/+wx0BVgAAAAAAAAAAAAAAAAAAAAAAAAAAAAAAAAAAAAAAAAAAAAAAAAAAAAAAAAAAAAAAAAAAAAAAAAAAAAAAAAAAAAAAAAAAAAAAABKtN/WLvb8wIf6VoRVRKtN/WLvb8wIf6VoRVQAAAAAAAAAAAAAAAAAAAAAAAAAAAAAAAAAAAAAAAAAAAAEqyX/tSa6P/wCA8xL/APn48KqOS806uumyr37j+WWu3aSDBw/GM0prxuUbjMyFORY0iTjqiLSUg3FHHf7EpbM1k0s0dxJMyDrQB4IMxixhR7CN4ngyWkPN+K0ppfaoiMu5CyJST4PzSoiMvYZEY84AAAAAAAAAAAAAAAAAAAAAAAAAAAAAAAAAAAAAAAAAAAAAAAAAAAAAAAAAAAAAAAAAAAAAAAAAAAAAAAAAAAAAAAAAAAAAAlWm/rF3t+YEP9K0IqolWm/rF3t+YEP9K0IqoAAAAAAAAAAAAAAAAAAAAAAAAAAAAAADA5vm+N66xt/LMslyI9dHejRjONCfmPOPSH22GGm2GELddccedbQlCEKUalkRENI9ZbXX2c2r7p8q+HB1LfV1UfmBgn6qqxVQEq9ZbXX2c2r7p8q+HB6y2uvs5tX3T5V8OFVABKvWW119nNq+6fKvhwestrr7ObV90+VfDhUZEiPDjuy5b7bDDCFOOuuKJKEIIuTUoz8iIiLkzMaHgPUDo7alq/Ra421ieSWMdKnFxK21ZfeNtJ8G4lCVdykEfl3pI08/xAYr1ltdfZzavunyr4cHrLa6+zm1fdPlXw4VUAEq9ZbXX2c2r7p8q+HDiLbmhtSbG64sT6hU4tsgsQNtNpk8BWqMpJT9rE7SjcI+TuDQ9/hGsuDI/Ad7vN0h9IMjyOgxCim5PlNzDqaitZVImTpjyWmI7Re1a1qMiSRfzMYWdtrWFZk72Fz9gY+xfRnYcd+tXYNFJadlqJEVtbfPKVuqMiQk+DVyXBHyA1b1ltdfZzavunyr4cHrLa6+zm1fdPlXw4VUaXsTdGpNRqgI2jsnG8UVaE6cIrixainJJvt8Tw/EMu7t70c8ezuL+YDXvWW119nNq+6fKvhwestrr7ObV90+VfDhuWC7I19s+oVf64zeiyitbdNlcqosGpbSHCIjNClNqMkq4Mj7T4PgyGxgJV6y2uvs5tX3T5V8OD1ltdfZzavunyr4cKJOyOhrLesoLC4hxrK5N4q6I68lLsvwkd7vhpPzX2p+kfHsLzGRASr1ltdfZzavunyr4cHrLa6+zm1fdPlXw4VUAEq9ZbXX2c2r7p8q+HB6y2uvs5tX3T5V8OFVABLI/UrrB2dAgSome1Z2U6LWx5FvrvIa6J6TJeQww2uTJhIZbNbrjbaTWtJGpaS55MhUxKupb6uqj8wME/VVWKqAAAAAAAAAAAAAAAAAAAAAAAAAAAAAAAAAAAAAAMDm+b43rrG38syyXIj10d6NGM40J+Y849IfbYYabYYQt11xx51tCUIQpRqWREQzwlXUt9XVR+YGCfqqrAPWW119nNq+6fKvhwestrr7ObV90+VfDhVQASr1ltdfZzavunyr4cHrLa6+zm1fdPlXw4VUS7IOqTpuxPIZeJ5TvfBKe4r3jjy4U6+jMPR3S9qXErWXYZc/x4AeP1ltdfZzavunyr4cHrLa6+zm1fdPlXw4U+HMiWERmfAlMyYsltLzLzKyW262ouUqSovJRGRkZGXkZDzAJV6y2uvs5tX3T5V8OD1ltdfZzavunyr4cKHX5JQW1ra0dZcw5VhRutM2cVl5K3YbjjSXW0upI+UGptaVkR+1KiP2GMkAlXrLa6+zm1fdPlXw4PWW119nNq+6fKvhwqomKOp/pxXk7mF/t1wRF81MVXrrnL+MiQmUlZoUz2KWR+ISyNPb7efLjkB4PWW119nNq+6fKvhwestrr7ObV90+VfDhVR4ET4Lk1ytbmsKlstoecjk4RuIbUZklRp9pJM0qIjPyPtP+QCY+strr7ObV90+VfDg9ZbXX2c2r7p8q+HCiX+R0OK1p3GS3ESsgk+xGORKdJtvxX3UMso7j8u5briEJL+KlEReZjIgJV6y2uvs5tX3T5V8OD1ltdfZzavunyr4cKqACVestrr7ObV90+VfDg9ZbXX2c2r7p8q+HCqgAlXrLa6+zm1fdPlXw4f1H6ldYOzoECVEz2rOynRa2PIt9d5DXRPSZLyGGG1yZMJDLZrdcbbSa1pI1LSXPJkKmJV1LfV1UfmBgn6qqwFVAAASrTf1i72/MCH+laEVUSrTf1i72/MCH+laEVUAAAAAAAAAAAAAAAAAAAAAAAAAAAAAABKupb6uqj8wME/VVWKqJV1LfV1UfmBgn6qqxVQAAABM+pgsNX0+7DY2JMtYmMSMdmx7eTVNG7KjxHGjQ462jg+40JUauDIy4SfJGXJDmqRcZ3rLMdQ0+dX+tNp0s1M6vwbJqOIutv6pfyVIV6UTLbrjD0dTDZoWtvsIu9JmX7pDt19hiUw5GksoeZeQbbjbiSUlaTLg0mR+RkZeXAn+O9Pek8HO0l681Rh+LWNrHejvT6mjjxn+1xJkZdzaUq7fPntIyIBx7qPYWdYzjPTxsOk3hlexMo2RTzyyHHrG2KZGkts1EiSa22CIvR3I8lhplS08KWalE4a1HyNe1bufqCgUOD7ai5Za3tlmGMXl1ZVtrl0SwjXDzdU/LbTArGkkuGbElptBpR28INaF8qMjHaGiOmzWGhsXoq7HcSxw8krKOHS2GSxaRiJNtPAaQ2bjq08r+maCUZGtXnxyZ8cjZcY0zqLCsnsc1w/WOLUl/b9/p1nX1LEeVI71dy+9xCSUfcr6SvP6R+Z8mA4hzPKLDEem6Vn2OdW+U5BleVamm5LMqJks56XpXERSrCKpPCaxLLjq2vBIiQrxCSSSU2ozz0mHZYLt3Zl3QZbkSH7Pf2EVUpD1k4605Fkxqxx1vsV5cGTymi/k0lCC8kkOuazROkqWLeQajT+FQo2TJUi6ZYoYqG7JKj5UmQkkcOpM/MyVyXPJjOP4Jg8qTImScNo3ZEuyj3L7q65lS3Z7CUJYlLUaeVPNpabJDh/SSTaCIy7S4Dkvp5ymdlqdd7fy3qVyKFmWa5RbwLLC33lS66R4RzC+SmoCeCgrjIabWcj2mbR+Ia/FTxt3UQzsZ/qw0ojV0nGWLr5s5efdkMd96J4PdV9xdrC0L7/ZwfPHt8heKrU+rqLMJ2wqXXGMQMos+fTbqNUsNTpHP73e+lJLVz/Hk/Py5Gbk49QTLqFkkyjr37etZejwp7kZCpMZp7s8VDbpl3ISvw2+4kmRK7E888EA+c+V5luvWd/u5FzLr67YOTZ1gdFc22KPJgQI9DLZWhh2KqUS/RZCjS+yuQ+a+1TqFFwSEmWfPYm3aOVJ1JebKuqDFrPYuOY9JtH8tZt7qiiSoMx6TFXZNly0p12LFS2tZm4gpSi5IzQO5rfW2u8gcunb3A8dsXMjitQblcqrYdVYxm+fDZkGpJm6hHcrtSvkk8nwRcjGV2kdOVGDSdZVmq8TjYlNWbkqjbp45QX1mZGa3Ge3sWrlKT7jIz+iXn5EA5WtcrtsOzKqxDDOoK+zetrZ2bxVuzFrXJrXI9Ay+3BemGZ+mqYdWbpO/vJN0kKM1IMxpdPtXYms8E1FsjDtz5LsXKM71te3t9SWdn8oRVPw6Fya08ywRF6Mbc1tqMfaRGvxDSolL5MdtTdMa4LEPmhjmFY7QsRK+dAqVwqhhsqv0plTTq46UpT4fclX0iSae4i4Mxi9K9PGr9H47VwMVwzG497GpYdPZ30KlYiS7XwGUNqceUgjUfepHeaTUrzPkzM/MBzT0rZhtx3ZOt13Gc29tWZ1iUy3u2bvM4lx6e6TbDjU+DFZSSoLaXFrbU2nhvtdSRka0GY7jGnYVpvUmtrSxu9e6yxbGrC3/APbpVTUsRXZJc93C1NpIzLu8+PZz5+0biAAAAJV1LfV1UfmBgn6qqxVRKupb6uqj8wME/VVWKqAAAAAAAAAAAAAAAAAAAAAAAAAAAAAAAAAAAAAAJV1LfV1UfmBgn6qqxVRKupb6uqj8wME/VVWAqoAAAOGMQrepSx9ZZrSr+s1QV7Gu0ej5NXy35Lsn5Og9yUqbcS0SDT2EnvQoiVyauS8h3OMfVY9j9EqwXR0dfXKtpa7CecSMhk5cpaUpW+72kXiOGlCCNauVGSUkZ+RAPnNiea5fc02lNS4JYZfWYXD0xCylpqszONQzJE43lMvKdmOJInm4yWyV4SSSn/GSpaTSRJG04Vn2cbeONWbr6jrTBUYvqmDk0a2xu3RDZtZTsiY29buKbIky2224sc/B48Ll1X0T7k8dg3fT/orJMcqcPvtNYTPoqFSlVVY/QxVRYJqV3L8Frs7WyUfmokkRH/Hke/lGndSZuVOWZavxO9LHiJNSVlTR5JQEkRESWCWg/DL6KfJPBfRT/IgHEeS7Lzi3zaPjyt+3ddU3Wz8HpX8ggn8lqlQZmHKkPE204R+jekv9qyQfKm1uJ4+kkjHr5btTa1DkE3Q+G7GynIcRPajeMxsjVkTUe1Wx8hpnu1KbZ4j7VlK7kE4Zm72kbZK54HXm2enDX+2Z+Oybaiom2K3KGMkuoz1KzIRf+FWyYKGJXdwSyJuQnhSyXwllKCLjgy2RWldPrwP9lqtW4oeH8kr5B+SI/oHcSu7u8Dt7O7u+l3cc8+fPPmAm3R5kGdW+JZhU5rfquG8fyyVWVTsi6ZtpkaKTDDnosqW0RJedacccT3HyrtNBKM1EZiR4LlWnKjpL3BF2zaUR1Z5ZnbcmFNdaU68pdrMJttttR9ynVKNJNkku41Gnt8+B2DieH4pgdDFxbCcaq6CmhEZR4FbERGjtcmZn2toIklyZmZnx5mZmfmNZi6A0PAyVeaQdJ4FHyFySuYu2axuGiYqQtRqU6b5N95rNRmo1c8mZ88gOJc6zDa9NrmnxdzLM+i5LrjS9PcXpMZMzj0GpsXI7xJkynV979g+ZsGk2DbNojb8zNbnCfcsMydo8o2LvK42FldVdW2ksKsTdqX0vmmXYPSmDONFeWTJcOmjsNRkhpbziz/eVz2/lOotVZxf1+V5prXF765qkeHBsLOojyZEZHJn2tuOJNSS5MzIiPyMzP2mPVLR2l0xo0MtSYabEOqcoo7R0cY0tVrijUuGkuzgmFKMzNv8AdMzM+PMB8/8AZGZZxCwvdGsczzG8o6ygVru3acusuayKdRPv5E2T765Rp7GzJLbTvgGa0I7UmRklfaVLzDOb3R1rt/AKTd2wclxuNi2Mz4lm7OZt7apurOydhlFYkvmltv0htLSyN1XYz3mtJEREk+qIHTn0/VcRMCv0fgUeMiKUEmUY7EJBxykIkk2ZeHwafSG23uD/APeISv8AeLke/TaR01juJ2eBUGqMQrsaulKXZU8WkjNQpilccm8ylBIc8iIvpEfkRF/AgHFdTsPc0ODu3VcTYcjHp9BMwoqhrIc5KzmMu2Eh4pcBVsTSvRXZKI6EIMycJpTxGSi709np2u3doQKSn0xV3Oyq2ZL2arHb5i5ymGdpAa+RynM1sW+JS0rbfXwpLqzKQRGtr6P0ee04nTzoSBWP00HSuDR4Equ+SJEZrH4qW3oXi+N6OtJI4U34peJ2nyXf9L2+Y9lrRWlWMDc1cxqbEG8Qec8Z2jTTRygrd5I/EUz2dhr5SR95l3ckR88gJ30eZBnVviWYVOa36rhvH8slVlU7IumbaZGikww56LKltESXnWnHHE9x8q7TQSjNRGYvow+J4fimB0MXFsJxqroKaERlHgVsREaO1yZmfa2giSXJmZmfHmZmZ+YzAAJV1LfV1UfmBgn6qqxVRKupb6uqj8wME/VVWAqoAACVab+sXe35gQ/0rQiqiVab+sXe35gQ/wBK0IqoAAAAAAAAAAAAAAAAAAAAAAAAAAAAAACQdVVZW3mpolJdV8awrrLN8JhzYcplLrEmO7k9YhxpxCiNK0LQpSVJMjIyMyMjIx7XqndLH4adVf0bXf2Q6lvq6qPzAwT9VVY0vrAc2k9K1LSahzKVj+QWOZvqZ7JC2409UalsZbcOWlJl4kZ12M2haT54I+4vpJIwG6eqd0sfhp1V/Rtd/ZD1Tulj8NOqv6Nrv7IhNH1V2FtN2Tn2O26IRnFxCti0t8UuYiltHnpzM+L6DFJTz0pC2loNhhJLdWyjzJPCi9io6rN7ZoxTUmG41iEa7VHzJ22kXtbYw2uKSRCQ0tuGtaZDJvJmJJTTp9zaj55Ps7VhbvVO6WPw06q/o2u/sh6p3Sx+GnVX9G139kQZ7rP23jGHoyLNsKxl2ZleMY1kWLQ6hqdIOGq3nFETHmJQTjspTXiNucx20qcMlNoR3GlR2fRe6MtzjGMvn7AxeXEkYjMNpE5rHLOnauI3orb5PMQ7FCZDSiUpxo0KNZGpvuSsyWREGS9U7pY/DTqr+ja7+yHqndLH4adVf0bXf2Rz3n3Ul1Br0fYZHObxGmd2Bqm/zrFZNKmSuVQoiRY7/hSFqc7X3TYmJ7H20toQ8giNC0mXNJ3lDyPHtA61xRWXXcWXNy3CqC0sam6nxZciPIsorElJS/HOUXiIWsjUp5Sz7vNRn5gN79U7pY/DTqr+ja7+yHqndLH4adVf0bXf2RDdg3OQ6I2VJ15jub5XkON2TGKWxw7vJJkyXUSZGVQoHDcxTnpRsvNPOmbLji0KOMtJkaFrQrD7Y6mttzMP3Bjdo3CxCwrsZyOXSQ2otjW3DRQ3vDjSo05RnFsG3WjS4pcZSFMmpKTJXmZB0V6p3Sx+GnVX9G139kPVO6WPw06q/o2u/sjwaf2Hs242Dm2sNrRMZK2xiFT27EnH0SER1xrD0tKWlpfUpRuNrhOkayMiWSkn2IPkhXAEq9U7pY/DTqr+ja7+yHqndLH4adVf0bXf2RVQASr1Tulj8NOqv6Nrv7Ieqd0sfhp1V/Rtd/ZFVABKvVO6WPw06q/o2u/sh6p3Sx+GnVX9G139kVUAEq9U7pY/DTqr+ja7+yHqndLH4adVf0bXf2RVQAc17r6fdC4HjGPZVg+kcBx27hZ/hBRrKpxqFElME5k1a24SHWm0rT3NrWg+D80qUR+RmQ6UEq6lvq6qPzAwT9VVYqoAAAAAAAAAAAAAAAAAAAAAAAAAAAAAAAAAAAAAAkHVVWVt5qaJSXVfGsK6yzfCYc2HKZS6xJju5PWIcacQojStC0KUlSTIyMjMjIyMV8SrqW+rqo/MDBP1VVgHqndLH4adVf0bXf2Q9U7pY/DTqr+ja7+yPV3beXdTsjRsGruJsONb5xJiWDMeQttEtgqG0dJp1KTInEE422vtVyXchJ+0iMaxvXbeda82HNZwTFpOQWDGHMz2oaHJchJEu3YjvPFBaWRSFtMuOOkhtPjOeH4aVF3ANx9U7pY/DTqr+ja7+yHqndLH4adVf0bXf2RJtebt2zsfaeq22sxxN2lsI+UsX0atqp0b0p2EuISDXHlqS/CeSl9H+C6SjQZucmsloNOwbm3/ALUw+82LOwakxVeNagoYt9kKLjx/TbfxWnX1sQ1NrShjtYZPhxxLpLcV2dpdpqAbz6p3Sx+GnVX9G139kPVO6WPw06q/o2u/sjXOm+bnV5sPeN5mWSKsY7OZsVFRE7pSEV8NmtivoaSy46ppvylkajbQha3PENalF4aW+WtdZdsaNiuncwTG3XV2OQ5rVV9lmN5nDtlj06O/YG24wdeqdINJPo/wGzVGZ7HFoPvR7TDsj1Tulj8NOqv6Nrv7Ieqd0sfhp1V/Rtd/ZELouuPNZc+dlszW02ZhBLyPw2YWL3TUmCxVsy3G5L1k6z8nyPHOEaPCZV3NLfbLucNK+Nnsdq7wgV2HS9lQ8QNOQXWOSoCsasZkVTKJa3fGjSGze730tklrhzyZe7lkppPaRGFN9U7pY/DTqr+ja7+yHqndLH4adVf0bXf2RBo3WftfDdW0G1tp4riMyLm2vZmY0FZQHKRIalx0xFJjSFOKc723UzUK70II2jSaDJwzSo69067m2Bsm4ybG8+xpxhykjwJkW4ZxW4oYkwpPjEuOmPatoeNxlTBcuJM0LS6gyJBkpJBm/VO6WPw06q/o2u/sh6p3Sx+GnVX9G139kVUAEq9U7pY/DTqr+ja7+yHqndLH4adVf0bXf2RVQASr1Tulj8NOqv6Nrv7Ieqd0sfhp1V/Rtd/ZFVABKvVO6WPw06q/o2u/sh6p3Sx+GnVX9G139kVUAEq9U7pY/DTqr+ja7+yNA3X0+6FwPGMeyrB9I4Djt3Cz/CCjWVTjUKJKYJzJq1twkOtNpWnubWtB8H5pUoj8jMh0oJV1LfV1UfmBgn6qqwFVAcndUX/SS6E6a5s7EUPSMxzaEfhuUdYokNxneOSTJlKI0NfyMkE4tJ8coLnkUTD+rvp+nYlSzcz6g9P12QSK+O7aw4mcV7rEeWptJvNtrN7lSUrNREZ+0iIBmNN/WLvb8wIf6VoRVRF+nXJ8azTJd05Zh2Q1l9R2WfR1wrOsltyoklKMapGlm282ZoWSXG3EH2mfCkKSfmRkLQAAAAAAAAAAAAAAAAAAAAAAAAAAAAAAAlXUt9XVR+YGCfqqrG93uG43k1tj95d1vpM3Fp67Opd8ZxHo0lcZ6MpfCVES+WZDyeFkovp88ckRlonUt9XVR+YGCfqqrFVAS656ZdKXVjkt07iLsO0y2yg3NpPrbSZBkqnw0KRHktOMOpVHdSlayNTRoNferv7uT5/rEOmvTeCznbLG8YltSHWrJlS5F1OlH22BRvTT/wAZ5X0nlQo61r/eNaVL57nFmqngAmtr05aZuqNvHLLDEvQGMfhYuyj0+USma6I6l2KhCyc70ONOIQtDxGTpKSk+/kiGd1xqzDNVVUyqxCHNT8pzFWFhMsbGRYTZ0lSEoN1+TJWt11XY2hBdyj4ShKS4IiIbaACRUnSjoygrb2lhYtPdrsgpJeNPw5V7YSGYtTK85EKGhx4yhMrMiM0x/D/dRxx2I7dy2Dq7CNpYs3hma1kmVVMyos1lEaxkwnmZEZxLjDrb8dxt1CkLQlRGlZHyRDawATKm6bdM0VTOp4eJvvItLGttZ0qdbzZs6XJgSG5ENTst95chxLTrSFJQpw0eRp47VKI8d6qGjFqukysYsZcW8jz4jsGTf2DsSKzOWS5aIbCnzbhk6oiNXgJbP+BGReQrwAMJAw3G6zLrjO4Nb4d5fQ4VfYSvGcPxo8RT6o6Ow1GhPYcp8+UpIz7/AKRnwnjNgAAAAAAAAAAAAAAAlXUt9XVR+YGCfqqrEb61P+kKxjpJlNYjH1/eZFlc+L6TE8ZlcSrSgz47jkqSfjGkzIzQ0Rl7UqWgxZOpb6uqj8wME/VVWN2zjAcJ2XjsjEtg4pV5DTyvNyFYxUPtdxexZEoj7VlzySi4UR+ZGRgIVoTqubyTTuK5NtCqzaZkt3AK0mOUOqsmXXoTIUp1pphaIbiXENtLbb8RLi0r7DWSlEojPf8A1ldefZravuoyn4eNr1frTFdP4NW65wdiWxRU/jJgsSpjspbDTjy3SaJx01LNCDcNKCMzMkpSXJ8DagEq9ZXXn2a2r7qMp+Hh6yuvPs1tX3UZT8PFVABKvWW139m9q+6fKfh4estrv7N7V90+U/DxVQASr1ltd/Zvavunyn4eHrLa7+ze1fdPlPw8VUAEq9ZbXf2b2r7p8p+Hh6y2u/s3tX3T5T8PFVABKvWW139m9q+6fKfh4estrv7N7V90+U/DxVQASr1ltd/Zvavunyn4cHrLa7+ze1fdPlPw4VUAEq9ZbXf2b2r7p8p+HB6y2u/s3tX3T5T8OFVABKvWW139m9q+6fKfhwestrv7N7V90+U/DhVQASr1ltd/Zvavunyn4cHrLa6+ze1fdPlPw4VUAEq9ZbXX2c2r7p8q+HB6y2uvs5tX3T5V8OFVABKvWW119nNq+6fKvhwn+7d4YXmGL49jlTS7Ajy5ewMH8Ny017f1kVPZk9as++TLhNst+STIu9ZdyuElypREfSolXUt9XVR+YGCfqqrAe5vXDtMZPjEK23fat1FPjM75Ui2i8kk0XoMk2XGfEKVHfZUkzbedRwa+DJZ+RjWcc0V017DxBufi0t7K6iXGKJGumM0sbN5KESm5aDZnHKcdQ43IabcStDhKQaSIjIuSGN6v3MRj1ev7DLM3nYKuty1E2py44caTVU1gmFKQ2qyTIMkFHdS440SvomTrjfC0c8jmW529mbFSqNV3mDQ8Wstjux8l2HjF7JxKiybilQ4y4qxbRLOEo3UtsuusmaXHI6WycT3qAdrUPT9q3G5lFZ1VRZJscdnTLKLYO3c56W9JloSiSuS8t41yvES233JeNaf8Nvgi7E8fznXT5qvY+Ut5hldJPfsPRmIcpMa4mRI1jHYdU8yzMjsuoaltocWpRJeSsvpGXsMyHFGe7s2InUWKQrPaTzd+eMZFcVFo3mkymjWaUTltV5srKCiTdzENNtElnwW2niX4qu4nUGNlk59nmSY/sbcf7asnYoWr7CqiW5V2RFApqOfW0Ui2sIyUEZJX2yXleLyZMpU64gkqNRmHalLVYJh2RWVbUuwoN3mUt/IpURcw1SJ7rTUaM9IQ0tRn2IQmIhXYRISakckRr5PV8nwDReDajiYxmJ1mO4Di0uDPZdsbpyHHgvsTW34ripa3UqSZSSbMu5zhSjJJ8kfafNtbi2ObX3Jr+iw7euf2uMR6bOir8gh3bqJj8dD1AXgM2ZKN2VHQ8tSkvd3Kzb7DUtKT78rszNrvLP8Ao28Pz/LcnZj2tjX4JY2N1MbSptt47asU5KdTylJkR8uKLlJe32EAq2sdZ9KeX5HYbE1Vb0WWKbkTFuN1mUuWtVXyZxL9LWzDS+uLFdfJbhLUhtKlEtf8FK5zWP8AS1pXFYZRqPF5huNPwZMZ6ddz5rsc4RunCabW+8tSGGTedNDCTJou9X0fMcjzdnop8i25sKg3BF2CxaY9jFa/meIss0cOnX8rKZKG9NI32G0qRLcccl/TcYaSo+CNKOfc1hneZ7TtMf1UW6reNAPa8+qXJxrMH7J9ykLFVWDTSLN5tt+SwuQh7skKQRmSVeGr6CVkHRGnejTU2udcVeI5JSHktkWIt4nbPz7KZLiuR1tNlLbisSHVoiNPOo8RSGUo5Pg/4FxR9aaawPUpWTmIQ7NUu4Nn06fa3Eu0mPoZSpLLapEtxx3w20qUSEd3anuVwXKjM93AAAAAAAAAAAAAAABKupb6uqj8wME/VVWKqJV1LfV1UfmBgn6qqwGI6g+jjp/6l4jh7Jwlkrnw+xnIK3iLZs8Fwn/GIjJ0klzwh1LiC5MyTz5iqYfSTsaxKlxy0v5d7Mq6+PCkWktKUvznG20oU+4SfIlrMjUfHlyZjMAAAAAAAAAAAAAAAAAAAAAAAAAAAAAAAAAAAJV1LfV1UfmBgn6qqxR7K8pKZyCzcXEGC5aSkwYKJMhDRypJoUsmWiUZd7hobWokp5PhCj44IxOOpb6uqj8wME/VVWMJ1MmZXukDI+DLZ8Qy/wBKswFwAfPCjy/cOC6k1/mlPtHPslutiaVtb60KdOXYnFmMLp+ydDYUkyQ6yzPknwlJ+J4aTWS18qP2mMzk5HmuU4DqDqZzS9xN3I9fV0a6ZvjnPxETXrJNgzHlqJXea0tIJSj7uxZdv/uiSkPoKMNkGZ4fif8A+Kcrp6b/AGSRYf7wnNR/9ljmgn3/AKai/wANvxWu9fsT4iOTLuLnhWNsjc8LqCmYxC2BGTkFRnqKOuxy0zecuVNx1ppJJ7qVMBxDiXmOXzsXJBGTquVOISRoE4sNipnUcLNaHemSZPnSNIZXZ5OxMs/FXjt4tyqN5lDRf+xLJxLiDjlwSEsNmRfSNSg+pQ8UmTGhR3ZcyQ2wwwg3HXXVklCEkXJqUZ+RERefJjhBO09uzOqCfTSNgwK24jbITUR8dfy6Z4zmNJSnnsoGoC2locjmp8pyny7XD83EJSaBpV5HzqX0007tztPPcmd2h075PkVzHsLp59CrCExVvR1sILjw/oy3WnEp8nkH/iEtRqUYfRu0vaSjajv3dxBr2pkpmFHXKkIaS9IeWSGmUGoy7nFrMkpSXmozIiIzH9SLmniWcOkl2sNmxsUOuQ4jj6UvSENdviqbQZ9yyR3o7jIj47k88ckOceorIcMoNC6rylOXx38Vr81wicV7LsvSWlwUWEdfpTkpaj8RPYXebpqPkuVGf8Rrm+N/Y7mUiqtdI71qW69vFcxRKvKd75RjV8tqPBU088ljuP8AwidNfJEZoSo1cHwA64elRo7jLT8hptchfhspWsiNxfaau1JH7T7UqPgv4EZ/wHlHz2xDI63Lr/VNhf57cvwMc3EiC3Zx9hO31K45KxyUtpqLaGTbkhC5BNNeE+RrQqS6wRml00H9CQAAAAAAAAAAAAABKupb6uqj8wME/VVWKqJV1LfV1UfmBgn6qqxVQAAAAAAAAAAAAAAAAAAAAAAAAAAAAAAAAAAAAABKupb6uqj8wME/VVWKqNC3fhuS51gJU+IJrF3EK+oL2K1ZSnI0Z9VbbxJ5srebadU2TiYpo7ybX2moj7T44Ab060282pp5tLiFlwpKi5Iy/kZD8XHjuMeiuMNqZNPb4ZpI08fy49nAl3zj6p/ub1V7y7H4EHzj6p/ub1V7y7H4EAqZttqNBqbSZtnygzL90+OPL+XkYEhCUE2lBEki4JJF5cfyEs+cfVP9zeqveXY/Ag+cfVP9zeqveXY/AgFUSlKEkhCSSlJcERFwREP0Sr5x9U/3N6q95dj8CD5x9U/3N6q95dj8CAVNaEuJNC0kpKi4MjLkjL+QJQhJ8pQRGZEXkX8C9glnzj6p/ub1V7y7H4EHzj6p/ub1V7y7H4EAqoCVfOPqn+5vVXvLsfgQfOPqn+5vVXvLsfgQCqgJV84+qf7m9Ve8ux+BB84+qf7m9Ve8ux+BAKqAlXzj6p/ub1V7y7H4EHzj6p/ub1V7y7H4EAqoCVfOPqn+5vVXvLsfgQfOPqn+5vVXvLsfgQCqgJV84+qf7m9Ve8ux+BB84+qf7m9Ve8ux+BAKqJV1LfV1UfmBgn6qqw+cfVP9zeqveXY/Ahgcwo+o3ZcOoxnI9f63oatjJsfu5k+FnM+wkIarraLPUhuOuoYStSyi+GXLqCLv7uT44MLmAAAAAAAAAAAAAAAAAAAAAAAAAAAAAAAAAAAAJV1LfV1UfmBgn6qqxVRKupb6uqj8wME/VVWKqAxmTY9X5Zj1jjNsqUmHaRnIj6ospyM+lC0mRqbdbNK21lzyS0mSkmRGRkZDAa+1ZQa6etrCBZXVtaXrjK7CzuJ6pcp9LKOxlvuPgkoQk1cJSRFytaj5UozPcgAfx4LPjekeEjxe3s7+0u7t55459vHP8AQ002ajbbSg1q7ldpcdx/zP+Zj+wAfx4LPjekeEjxe3s7+0u7t55459vHP8B/YAA/CSSSJKSIiIuCIv4AZEZcGXkP0AHjbYYZaSw0yhDaP3UJSRJLz58iHkAAAAAAAAAAAAAAABKupb6uqj8wME/VVWKqJV1LfV1UfmBgn6qqxVQAAAAAAAAAAAAAAAAAAAAAAAAAAAAAAAAAAAAAAAAAAAAAAAAAAAAAAAAAAAAAAAAAAAAAAAAAAAAAAAAAAAAAAAAAAAAAAAAAAAAAAAAAAAAAAEq6lvq6qPzAwT9VVY2HaG1KPVldWP2FXa3NpfWCKqlpalpDs2ylqQtzw2icWhtJJbbccUtxaEJShRqUXlzr3Ut9XVR+YGCfqqrHpdQGIZxMudd7S17QfOG115fPT36NMlqO7YwZUJ+JIQw48pLSXkk+lxHepKVdhp7k9wDMYhvSguoeRuZzj9triZiRMOXMfK1xWG47DxKNp9Mpl5yK40rsWXcl0+1STJRJPjnPTtuaoq8ZgZrZ7OxOJj1osmoNu/dRm4UpZ88JafUskLM+D8kmfsMQnYtVvXbNZGzLINPyW6HGstprmtwGVLrl2dpEjNvpkuSFk+qIS/EkMutMG9wRwkmpRKc4TplDqHYWIbDLddh09WGS1V9MylxvBkS6k5GPKsDriYf7XZCYnL6YD5v+G6s0HLPg1EawHUSdt4SjJ8hxmws264sah1U6XYzXmWYS0WC3kRybdNfmo1MKIyMiLlaCSaufL12t3ayjUzV1lOY0eLNvypMVtq6uYTC1mzKcjdxGl5SDJS2ldpEru8ySokrJSE8k4t0nbswPI8HzxMBeQua8pMOinjKp8VUC3dYbnMzja8ZRGmRBTKbXFddUhP0TIuTV3I2zEOmXLXF2a831zAlmrEM1qofpbsSQSZNjkMuWwhJd6u03I7jSu7yJJK7VGk+UgOpLHYmv6e9Yxe3zrHoNzKbbdYrpNmw1KdQtZIQpLSlEtRKWZJIyLg1GRF5jWdo7qY1pkmM4fE13lmYXWVsz5EKHQFAJSGoZMm8pxUyVHQX/Xo4IlKM/Py/nxNa09rizcbWOXYRS3eZS9ja6lFdN29e5NqTZbpW1Q3GDd9KN1CGJBkbSFsmw666bhGSyPq/d1bsWu3HrHZeFavt82g45AyGFZRquwr4z7KpaYZMq/22QwlSTNhzntUZlx7PMgGw4d1D4TmjEJUWut6uS5bS6S0g3CGIMqklxoapbiJbbjpGZGylKiNnxSNLiF/udy07FJ2/qaFBYs5m0cRYhyph1zEh27jJadlERGbCVGvhTnCkn2EfdwovLzIc1WWh9x5JkDmzLbD40O5yrK7y7n1TFkw58kwlYk/TwGnHDWSHXVrQypZtcpSp/jk0oNY1LOulzYFBEwBvEcBvXqqJq9GGzabFvm53RLNZoVJVJO2Zdb8GR5Jdfj9zvLBGZLIyAdm2mx9eUd+jFLvPMdr7tyKucitlWjDUpUZBGa3iaUolm2RJUZq44IiPz8hrGEdQ2rthVEPJ8ayCK7j0ykcvvlh6ZGajMR23fCWl0lO+I2pJ8mo1I7E8GRqJX0RDdW6PzfXeSu4TkGmG8vYnX+P3bWcWVrEeTBjQqqFFW06vublOSWnIjpN9jBMuJf7ldhG4g9Fb6bdxu4LhkKTqlbvzLx2rhWNG9YQCbvnIGRRpjsVJk8aDQ/HZW4g3e1Jn2Jc7eTIB2SW3tTnjUfNC2fiXzflm4Ue2+W43obxtkalkh/v7FdpJUZ8H5EkzP2Dyztpayq4lLPstjYxEi5IpKKZ5+3jtt2SlcdpRlKWRPGfJcdnPPJDm3HNEZVlW26fZ19qUqHHpuxpGTO47YuwXFV0dvGFV7Ut5pl1xo3nZiUr7WlLNJeEtXCiWZT7JunTcNZhcCkx/Utm/cIi5bWQURpNJMplRZV/MlQ4VpCmq7Uw1x1xlk7EV47Zd6DSSkpSA77AeKMTyYzSZJNk8SEk4TZmae7jz458+OfZyPKAAAAAAACVdS31dVH5gYJ+qqsVUSrqW+rqo/MDBP1VViqgAAAAAAAAAAAAAAAAAAAAAAAAAAAAAAAAAAAAAAAAAAAAAAAAAAAAAAAAAAAAAAAAAAAAAAAAAAAAAAAAAAAAAAAAAAAAAAAAAAAAAAAAAAAAAAJV1LfV1UfmBgn6qqx5d1bHyzFLHC8D15FqlZVn9u9WwZVs247Cr2WIj0qRJdabWhb3a2z2pbStHctaeVpIjHi6lvq6qPzAwT9VVY9/c2ppezY2OWuOZR82srw23Td0NsqH6W0y8bLjDrTzHejxWXWXnUKSS0K+kRkojIBrTu0dk6eqLJze8OtyQ12MGuxeVh1a4xKyCTJ7y9EKA8+54LyDbNRrN/wzQZqM0dih6D/WJhCXK+prtd7CtMknKuGXschVDLljBfrDinLZkEb5NJUSJrDiFE4pDiVF2KUpSEq8Fl047FyGPIy/JNvwZex27ytvKmyboVopqo4TbzTcZqAqUpZtrblyycWcjxFG/wA9xEhCSyet+nOww/YkDauQ5tFtshcTkL12cWoOIxNlWjlZ2raSp5xTLbDNSwylClOKURkZrIy4MMNe9cmoaSC1ds0Ga21L8gU2UTLWspfHj19baGtMV58u8nCM1NmRtpQpwvPhJklRp99XWBhiGmYa9dbBLI3sicxcsY+SmDtEzk15WCSUgnzbJC4ppcJfidpEf0+zhXGDxjo2LHNb2evv2jekfKOI4pi3pnyP2dnyK68vx+zxz58bxuOzuLs7f3l8+W3o6diTute4fnfz3ZV85vk75P8AZ/8AZ0qbwPF8X/Lx+/s/8nb/AN8BqOP9XvT9kj57CtMOvqFqNjdjfwMiu8fQyqXDguNtT2YyiUp83GXX0Nqb7SJalf4ZuF5jYZHVzhFdXylX2CZ7UXkWfV1545LqG/lRw7JTiYLqG23VIU26tl1BGS+UKQolkjg+NbyToqqctwKgwC7zt1cOkxnJMdU61WJJTyrSTFkIkElTikp8FcRP0DJROd3maeOD/Nf9HLeJuNWUq0wSsnoyKlulNYfgceihKarlOmls0IdW6tx03lGpxbq0p4IkNp+l3B78TrCqrLNMaoY+usngVk9jIjyCRZsMsv0T9T4JutvNpeV3ESXSUamzWRpcaNJq7ldtF1Fuqm3FFkzKnEsopGmo0WdGcuYTbbU+HJJZsyI7rTjjbiTJtXKe4nEeXehHcnnSnOme4jZ25nVDslMCTIt8inukdOTqm2LaLFZUhpRvdqXWlwmnEuKStKiNSTb/AIj2enfp2sNJ22RXtjfY469kEaFGdr8Xx06OrJyOp81TFRfSHk+lPeMROLR2J4bQRJ8uTC3gAAAAAAAAAAAAAAACVdS31dVH5gYJ+qqsVUSrqW+rqo/MDBP1VViqgAAAAAAAAAAAAAAAAAAAAAAAAAAAAAAAAAAAAAAAAAAAAAAAAAAAAAAAAAAAAAAAAAAAAAAAAAAAAAAAAAAAAAAAAAAAAAAAAAAAAAAAAAAAAAAJV1LfV1UfmBgn6qqx6m+by7pMy0kisuJ0CHZbCKBZJjyFtNymFU1opLLxJMiWg3kMmSVcl3pQftIh7fUt9XVR+YGCfqqrHv73LRz+FNwN+5JQUdBInsHEmW14VQbc9szdZVHleK0tp9PYpSVNrJZElXHlyAjOdbc2jhu885qcKfh2Z2VxhGN10W7kvqrq5ya1PVIdQ2hRdq+EsLUlPBrIkkZ+ZGXkquoveOT5i/pfGarAV53jb94vIJ8spjdU/HgFXqaKK2SzcQ48VrHJRqcWlg23OfE5SR5hfTnpDZ2uqev1Rkka1x9/MIWU295FyeXZTLZ6Mg0d3yol9cjx0l4XYsnuW+xPb28ENlsOmjp1U1QYFKhSIthHVZ2kEmspnx7eel5TJWTjshMgpUttw1xkv+ItaT5ZJX/cIBz3QdXuwNf6R1pYIlwslfh6/wAev8hblV1rbWkw5Xclxb0tgjYry7WzWl+WpXir7kkku01Hn7TqV3NgOVZfi02ZWXMu52dNx+geRjNpZppq+NUR5rpriQDckSvJxpKUIJHC1vOKWSCJKbFd9IfTjLqI1HY4vMhVCaiFjRQWMlsokaVFj9yIbbzbchKZDjRuK8JxwlOJUZGlXcSTLM3nTHp/IHbGXMqLpmbZWUe5XOh5HYxpTFgzF9FKWw62+lcd5cfhtxbRpN1JF4nfwQDSsn2zmmZdD+xdmzKm1w3KIeHZR2+GzLr348qGzKbblsJfS3IYJZsofb70pcQS0kf0i5EaotiZPqjY+F3czGdy4tQHiOQ3l0xmmYrv4+RehV6X0sREnNmlHfSZG8SjUzyhDieFc8F0Tlc/pS1XgbvTxnedYRidDbU0mI5Q3OUNQZMuBMN1D7hqeeTIWbqlP9z3d3qWaz7u7kxukzA9abAYxbIHoES6iULbr1FIZmLcj+FIirjL/cX2SG1sOrTwvvSZHzxyRGQcv4/1o7imV0WPP1zFcssqj0xUM13Gb2nq66dYWMaGUWW9PZQUwmylodJ2MaSdJpxJJRylR5fau/twanlLsMqqsZssjx3EMvsUlVWMpqsnqhu0psKciG+omlKTNURk8a3G+0zQskOq76zWdJOhqmitseTi1hKg20NivX6fkFhKdhxGHUvMMQ3XX1OQ22nUIcQlhSO1aEKLzSky17Kul/UGxdNzqnWrsV1eQY/ZwqzI3biVaJksWqozsmQ5IU8s5ZveiRj8Valq4QkkqJJmRhqGwOqjbGopttr/ADajxmzzJ2VjyaeTQ1dnKhNsWq5yT8eKz4sp5xj5Nkn2tcG8SmuCb5V22Hp52hlO08OsrLMcak1NlT3UmoN1ymn1TVk2hDbjctmLPQiQ0haXSSaV93C0OESlERGfrMdK+kmMetscVjlnIRdSYkyVYS8gsZNmT0QzOIpqe6+qSz4HJ+ETbiSR3K4/eVzuuvtdYlq/H/m1h0B+PFXIdmSHZMx6XJlSXD5cffkPqW684o+OVrUZ8ERewiIg2UAAAAAAAAAAAABKupb6uqj8wME/VVWKqJV1LfV1UfmBgn6qqxVQAAAAAAAAAAAAAAAAAAAAAAAAAAAAAAAAAAAAAAAAAAAAAAAAAAAAAAAAAAAAAAAAAAAAAAAAAAAAAAAAAAAAAAAAAAAAAAAAAAAAAAAAAAAAAAEq6lvq6qPzAwT9VVY0/qyyrE8JyXReUZxfVtLRwNiLVLnWL6GYzJKobZKTWtZklJGpSSLn+JkKRu/DclzrASp8QTWLuIV9QXsVqylORoz6q23iTzZW8206psnExTR3k2vtNRH2nxwMP84+qf7m9Ve8ux+BAOUNjZvLgy9kbU6fp8an1xlOR4fT2mQRZq6WueUgph2U9mc2w74DaydrYzk1tpZeSjJXKO5Ouy9jbhi0hZpi2Uxsjt6fD9lFiVlX2cq98OCiRjv0kTpERldgbK1STQ8TTiVE2gu50yVz2evIOqRxCm3NMapUlRGSknsqxMjL+R/7hBGQdUbSEttaY1QhCCJKUp2VYkREXsIi+QQHGTl7Ly/E5b9/uFmzwHHc6wGYmyqtjWF63XPu2JomuO3LsSIkk+GqO4bJKWUZZEv/AAu5BFuegNpbcybqBp4eQbCgfLUzJMji5TjLmWzZkiNXMelFGaOkKATFYlo0RDbknI/x0n5qcU8SU9MN3fU+y2bLWlNTIbMzM0p2TYEXJnyfl8g/zH6m96oUuqfTpXU5OLIiUstk2Pcoi9hGfyD58AJrmlFtO96xcpZ1flmJ0b6NX4+UpV/jr1sl0jtLkkE2TcqP4Zkfdyau8j5LyLjz5drdhZlh+sdb4Y1nEHC8fr8RvXPSnc4fxxiTlLNxJZlky5GgyDlG0tPiM15pSk0P9ppc7SIu7/nH1T/c3qr3l2PwIfw7e9UL3b42ldTudiiWnu2TYn2qL2GX+4fI/wDMBz9rnYV9b7JRH3HurIajZ8e5oIlXiVU863BsKp6qhvSHyrFkg3GXH3JxuSXGyWwbXb9Ds8NUfqdzW5a8XPyDf+VVmaV2oMOu8FoY1yto7vIH40k1F6MR8z1OuojIWyZKLtcUo088KT3F84OqTvJz9jGqe8i7e79pVjzx/Ln5BGBrqnqHq8yu87i6U1d8rX8eFGmLXs6yUjsik8TPYn5B+ifEh3ky9vJAOf67au47HqdfqLLO66pvGdjt1LeMv5hMN1WOElHcSKFqAtpxtcc1vlPU+nhzjlxCUmgd6iT/AC71Q+N6R+xXU/i9vZ3/ALSbHu7eeeOfkHnjn+A/v5x9U/3N6q95dj8CAVUBKvnH1T/c3qr3l2PwIPnH1T/c3qr3l2PwIBVQEq+cfVP9zeqveXY/Ag+cfVP9zeqveXY/AgFVASr5x9U/3N6q95dj8CD5x9U/3N6q95dj8CAVUBKvnH1T/c3qr3l2PwIPnH1T/c3qr3l2PwIA6lvq6qPzAwT9VVYqohmYUfUbsuHUYzkev9b0NWxk2P3cyfCzmfYSENV1tFnqQ3HXUMJWpZRfDLl1BF393J8cHcwAAAAAAAAAAAAAAAAAAAAAAAAAAAAAAAAAAAAAAAAAAAAAAAAAAAAAAAAAAAAAAAAAAAAAAAAAAAAAAAAH/9k=;" vertex="1" parent="1">
                    <mxGeometry width="460.16" height="210" as="geometry"/>
                </mxCell>
            </root>
        </mxGraphModel>
    </diagram>
</mxfile>